<svg width="199" height="95" viewBox="0 0 199 95" fill="none" xmlns="http://www.w3.org/2000/svg">
<path d="M34.6465 44.1017C36.4408 44.1017 37.8669 44.6053 38.9248 45.6124C39.9912 46.6196 40.5244 47.9991 40.5244 49.7511C40.5244 51.8247 39.8854 53.42 38.6074 54.5372C37.3294 55.6544 35.5013 56.213 33.123 56.213C31.0579 56.213 29.3906 55.8787 28.1211 55.2101V51.8204C28.7897 52.1759 29.5684 52.4679 30.457 52.6964C31.3457 52.9165 32.1878 53.0265 32.9834 53.0265C35.3786 53.0265 36.5762 52.0447 36.5762 50.0812C36.5762 48.2107 35.3363 47.2755 32.8564 47.2755C32.4079 47.2755 31.9128 47.3221 31.3711 47.4152C30.8294 47.4998 30.3893 47.5929 30.0508 47.6945L28.4893 46.8566L29.1875 37.3986H39.2549V40.7247H32.6279L32.2852 44.3683L32.7295 44.2794C33.2458 44.1609 33.8848 44.1017 34.6465 44.1017ZM55.6191 46.6788C55.6191 49.9204 55.0859 52.3198 54.0195 53.8771C52.9616 55.4344 51.3281 56.213 49.1191 56.213C46.9779 56.213 45.3613 55.409 44.2695 53.8009C43.1862 52.1928 42.6445 49.8188 42.6445 46.6788C42.6445 43.4034 43.1735 40.9913 44.2314 39.4425C45.2894 37.8852 46.9186 37.1066 49.1191 37.1066C51.2604 37.1066 52.877 37.9191 53.9688 39.5441C55.069 41.1691 55.6191 43.5473 55.6191 46.6788ZM46.542 46.6788C46.542 48.9555 46.7367 50.589 47.126 51.5792C47.5238 52.561 48.1882 53.0519 49.1191 53.0519C50.0332 53.0519 50.6934 52.5525 51.0996 51.5538C51.5059 50.5551 51.709 48.9301 51.709 46.6788C51.709 44.4021 51.5016 42.7687 51.0869 41.7784C50.6807 40.7797 50.0247 40.2804 49.1191 40.2804C48.1966 40.2804 47.5365 40.7797 47.1387 41.7784C46.7409 42.7687 46.542 44.4021 46.542 46.6788ZM62.5889 48.1896H57.6758V45.4093H62.5889V40.4581H65.3691V45.4093H70.2822V48.1896H65.3691V53.0773H62.5889V48.1896Z" fill="#181818"/>
<path d="M111.471 40.6251L108.158 31.0861H108.096C108.184 32.5027 108.229 33.8309 108.229 35.0704V40.6251H106.533V29.2032H109.166L112.338 38.2892H112.385L115.65 29.2032H118.291V40.6251H116.494V34.9767C116.494 34.409 116.507 33.6694 116.533 32.7579C116.564 31.8465 116.59 31.2944 116.611 31.1017H116.549L113.119 40.6251H111.471ZM126.51 40.6251L126.143 39.422H126.08C125.663 39.948 125.244 40.3074 124.822 40.5001C124.4 40.6876 123.859 40.7814 123.197 40.7814C122.348 40.7814 121.684 40.5522 121.205 40.0939C120.731 39.6355 120.494 38.9871 120.494 38.1486C120.494 37.2579 120.825 36.5861 121.486 36.1329C122.148 35.6798 123.156 35.4324 124.51 35.3907L126.002 35.3439V34.8829C126.002 34.3309 125.872 33.9194 125.611 33.6486C125.356 33.3725 124.958 33.2345 124.416 33.2345C123.973 33.2345 123.549 33.2996 123.143 33.4298C122.736 33.56 122.346 33.7137 121.971 33.8907L121.377 32.5782C121.846 32.3335 122.359 32.1486 122.916 32.0236C123.473 31.8934 123.999 31.8282 124.494 31.8282C125.593 31.8282 126.421 32.0678 126.979 32.547C127.541 33.0262 127.822 33.7788 127.822 34.8048V40.6251H126.51ZM123.775 39.3751C124.442 39.3751 124.976 39.1902 125.377 38.8204C125.783 38.4454 125.986 37.922 125.986 37.2501V36.5001L124.877 36.547C124.012 36.5782 123.382 36.7241 122.986 36.9845C122.596 37.2397 122.4 37.6329 122.4 38.1642C122.4 38.5496 122.515 38.8491 122.744 39.0626C122.973 39.271 123.317 39.3751 123.775 39.3751ZM134.768 31.8282C135.137 31.8282 135.442 31.8543 135.682 31.9064L135.502 33.6173C135.242 33.5548 134.971 33.5236 134.689 33.5236C133.955 33.5236 133.359 33.7631 132.9 34.2423C132.447 34.7215 132.221 35.3439 132.221 36.1095V40.6251H130.385V31.9845H131.822L132.064 33.5079H132.158C132.445 32.9923 132.817 32.5835 133.275 32.2814C133.739 31.9793 134.236 31.8282 134.768 31.8282ZM139.064 36.0626L140.104 34.7657L142.713 31.9845H144.83L141.354 35.6954L145.049 40.6251H142.893L140.119 36.8361L139.111 37.6642V40.6251H137.291V28.4689H139.111V34.3986L139.018 36.0626H139.064ZM150.221 40.7814C148.877 40.7814 147.825 40.3907 147.064 39.6095C146.309 38.823 145.932 37.7423 145.932 36.3673C145.932 34.9559 146.283 33.8465 146.986 33.0392C147.689 32.2319 148.656 31.8282 149.885 31.8282C151.025 31.8282 151.926 32.1746 152.588 32.8673C153.249 33.56 153.58 34.5131 153.58 35.7267V36.7189H147.822C147.848 37.5574 148.075 38.2032 148.502 38.6564C148.929 39.1043 149.531 39.3282 150.307 39.3282C150.817 39.3282 151.291 39.2814 151.729 39.1876C152.171 39.0887 152.645 38.9272 153.15 38.7032V40.1954C152.702 40.409 152.249 40.56 151.791 40.6486C151.333 40.7371 150.809 40.7814 150.221 40.7814ZM149.885 33.2189C149.301 33.2189 148.833 33.4038 148.479 33.7736C148.13 34.1434 147.921 34.6824 147.854 35.3907H151.775C151.765 34.6772 151.593 34.1381 151.26 33.7736C150.926 33.4038 150.468 33.2189 149.885 33.2189ZM158.885 39.297C159.333 39.297 159.781 39.2267 160.229 39.0861V40.4689C160.025 40.5574 159.762 40.6303 159.439 40.6876C159.122 40.7501 158.791 40.7814 158.447 40.7814C156.708 40.7814 155.838 39.8647 155.838 38.0314V33.3751H154.658V32.5626L155.924 31.8907L156.549 30.0626H157.682V31.9845H160.143V33.3751H157.682V38.0001C157.682 38.4428 157.791 38.771 158.01 38.9845C158.234 39.1928 158.525 39.297 158.885 39.297ZM112.994 64.6251H106.533V53.2032H112.994V54.7814H108.4V57.8907H112.705V59.4532H108.4V63.0392H112.994V64.6251ZM117.197 60.2111L114.299 55.9845H116.393L118.361 59.0079L120.346 55.9845H122.424L119.518 60.2111L122.572 64.6251H120.494L118.361 61.3907L116.236 64.6251H114.158L117.197 60.2111ZM128.471 64.7814C127.377 64.7814 126.528 64.3881 125.924 63.6017H125.814C125.887 64.3309 125.924 64.7736 125.924 64.9298V68.4689H124.088V55.9845H125.572C125.614 56.146 125.7 56.5314 125.83 57.1407H125.924C126.497 56.2657 127.356 55.8282 128.502 55.8282C129.58 55.8282 130.419 56.2189 131.018 57.0001C131.622 57.7814 131.924 58.8777 131.924 60.2892C131.924 61.7006 131.617 62.8022 131.002 63.5939C130.393 64.3855 129.549 64.7814 128.471 64.7814ZM128.025 57.3282C127.296 57.3282 126.762 57.5418 126.424 57.9689C126.09 58.396 125.924 59.0782 125.924 60.0157V60.2892C125.924 61.3413 126.09 62.1043 126.424 62.5782C126.757 63.047 127.301 63.2814 128.057 63.2814C128.692 63.2814 129.182 63.021 129.525 62.5001C129.869 61.9793 130.041 61.2371 130.041 60.2736C130.041 59.3048 129.869 58.573 129.525 58.0782C129.187 57.5782 128.687 57.3282 128.025 57.3282ZM137.83 64.7814C136.486 64.7814 135.434 64.3907 134.674 63.6095C133.919 62.823 133.541 61.7423 133.541 60.3673C133.541 58.9559 133.893 57.8465 134.596 57.0392C135.299 56.2319 136.265 55.8282 137.494 55.8282C138.635 55.8282 139.536 56.1746 140.197 56.8673C140.859 57.56 141.189 58.5131 141.189 59.7267V60.7189H135.432C135.458 61.5574 135.684 62.2032 136.111 62.6564C136.538 63.1043 137.14 63.3282 137.916 63.3282C138.426 63.3282 138.9 63.2814 139.338 63.1876C139.781 63.0887 140.255 62.9272 140.76 62.7032V64.1954C140.312 64.409 139.859 64.56 139.4 64.6486C138.942 64.7371 138.419 64.7814 137.83 64.7814ZM137.494 57.2189C136.911 57.2189 136.442 57.4038 136.088 57.7736C135.739 58.1434 135.531 58.6824 135.463 59.3907H139.385C139.374 58.6772 139.202 58.1381 138.869 57.7736C138.536 57.4038 138.077 57.2189 137.494 57.2189ZM147.658 55.8282C148.028 55.8282 148.333 55.8543 148.572 55.9064L148.393 57.6173C148.132 57.5548 147.861 57.5236 147.58 57.5236C146.846 57.5236 146.249 57.7631 145.791 58.2423C145.338 58.7215 145.111 59.3439 145.111 60.1095V64.6251H143.275V55.9845H144.713L144.955 57.5079H145.049C145.335 56.9923 145.708 56.5835 146.166 56.2814C146.63 55.9793 147.127 55.8282 147.658 55.8282ZM152.018 64.6251H150.182V55.9845H152.018V64.6251ZM150.072 53.6954C150.072 53.3673 150.161 53.1147 150.338 52.9376C150.52 52.7605 150.778 52.672 151.111 52.672C151.434 52.672 151.684 52.7605 151.861 52.9376C152.044 53.1147 152.135 53.3673 152.135 53.6954C152.135 54.0079 152.044 54.2553 151.861 54.4376C151.684 54.6147 151.434 54.7032 151.111 54.7032C150.778 54.7032 150.52 54.6147 150.338 54.4376C150.161 54.2553 150.072 54.0079 150.072 53.6954ZM158.424 64.7814C157.08 64.7814 156.028 64.3907 155.268 63.6095C154.512 62.823 154.135 61.7423 154.135 60.3673C154.135 58.9559 154.486 57.8465 155.189 57.0392C155.893 56.2319 156.859 55.8282 158.088 55.8282C159.229 55.8282 160.13 56.1746 160.791 56.8673C161.452 57.56 161.783 58.5131 161.783 59.7267V60.7189H156.025C156.051 61.5574 156.278 62.2032 156.705 62.6564C157.132 63.1043 157.734 63.3282 158.51 63.3282C159.02 63.3282 159.494 63.2814 159.932 63.1876C160.374 63.0887 160.848 62.9272 161.354 62.7032V64.1954C160.906 64.409 160.452 64.56 159.994 64.6486C159.536 64.7371 159.012 64.7814 158.424 64.7814ZM158.088 57.2189C157.505 57.2189 157.036 57.4038 156.682 57.7736C156.333 58.1434 156.124 58.6824 156.057 59.3907H159.979C159.968 58.6772 159.796 58.1381 159.463 57.7736C159.13 57.4038 158.671 57.2189 158.088 57.2189ZM171.471 64.6251H169.627V59.3126C169.627 58.646 169.492 58.1486 169.221 57.8204C168.955 57.4923 168.531 57.3282 167.947 57.3282C167.171 57.3282 166.604 57.5574 166.244 58.0157C165.885 58.4741 165.705 59.2423 165.705 60.3204V64.6251H163.869V55.9845H165.307L165.564 57.1173H165.658C165.919 56.7059 166.288 56.3881 166.768 56.1642C167.247 55.9402 167.778 55.8282 168.361 55.8282C170.434 55.8282 171.471 56.8829 171.471 58.9923V64.6251ZM177.51 64.7814C176.202 64.7814 175.208 64.4012 174.525 63.6407C173.848 62.8751 173.51 61.7788 173.51 60.3517C173.51 58.8986 173.864 57.7814 174.572 57.0001C175.286 56.2189 176.314 55.8282 177.658 55.8282C178.57 55.8282 179.39 55.9975 180.119 56.3361L179.564 57.8126C178.788 57.5105 178.148 57.3595 177.643 57.3595C176.148 57.3595 175.4 58.3517 175.4 60.3361C175.4 61.3048 175.585 62.034 175.955 62.5236C176.33 63.0079 176.877 63.2501 177.596 63.2501C178.413 63.2501 179.187 63.047 179.916 62.6407V64.2423C179.588 64.435 179.236 64.573 178.861 64.6564C178.492 64.7397 178.041 64.7814 177.51 64.7814ZM185.721 64.7814C184.377 64.7814 183.325 64.3907 182.564 63.6095C181.809 62.823 181.432 61.7423 181.432 60.3673C181.432 58.9559 181.783 57.8465 182.486 57.0392C183.189 56.2319 184.156 55.8282 185.385 55.8282C186.525 55.8282 187.426 56.1746 188.088 56.8673C188.749 57.56 189.08 58.5131 189.08 59.7267V60.7189H183.322C183.348 61.5574 183.575 62.2032 184.002 62.6564C184.429 63.1043 185.031 63.3282 185.807 63.3282C186.317 63.3282 186.791 63.2814 187.229 63.1876C187.671 63.0887 188.145 62.9272 188.65 62.7032V64.1954C188.202 64.409 187.749 64.56 187.291 64.6486C186.833 64.7371 186.309 64.7814 185.721 64.7814ZM185.385 57.2189C184.801 57.2189 184.333 57.4038 183.979 57.7736C183.63 58.1434 183.421 58.6824 183.354 59.3907H187.275C187.265 58.6772 187.093 58.1381 186.76 57.7736C186.426 57.4038 185.968 57.2189 185.385 57.2189ZM196.971 62.1642C196.971 63.0079 196.663 63.6564 196.049 64.1095C195.434 64.5574 194.554 64.7814 193.408 64.7814C192.257 64.7814 191.333 64.6069 190.635 64.2579V62.672C191.65 63.1407 192.596 63.3751 193.471 63.3751C194.601 63.3751 195.166 63.034 195.166 62.3517C195.166 62.1329 195.104 61.9506 194.979 61.8048C194.854 61.659 194.648 61.5079 194.361 61.3517C194.075 61.1954 193.676 61.0184 193.166 60.8204C192.171 60.435 191.497 60.0496 191.143 59.6642C190.794 59.2788 190.619 58.7788 190.619 58.1642C190.619 57.4246 190.916 56.8517 191.51 56.4454C192.109 56.034 192.921 55.8282 193.947 55.8282C194.963 55.8282 195.924 56.034 196.83 56.4454L196.236 57.8282C195.304 57.4428 194.52 57.2501 193.885 57.2501C192.916 57.2501 192.432 57.5262 192.432 58.0782C192.432 58.3491 192.557 58.5782 192.807 58.7657C193.062 58.9532 193.614 59.2111 194.463 59.5392C195.176 59.8152 195.695 60.0678 196.018 60.297C196.34 60.5262 196.58 60.7918 196.736 61.0939C196.893 61.3907 196.971 61.7475 196.971 62.1642Z" fill="#181818"/>
<path d="M94.7354 47.5622C94.7354 73.577 73.6462 94.6662 47.6314 94.6662C21.6165 94.6662 0.527344 73.577 0.527344 47.5622C0.527344 21.5473 21.6165 0.45813 47.6314 0.45813C73.6462 0.45813 94.7354 21.5473 94.7354 47.5622ZM5.23775 47.5622C5.23775 70.9755 24.218 89.9558 47.6314 89.9558C71.0448 89.9558 90.025 70.9755 90.025 47.5622C90.025 24.1488 71.0448 5.16854 47.6314 5.16854C24.218 5.16854 5.23775 24.1488 5.23775 47.5622Z" fill="#F1F1F1"/>
<path d="M47.6314 2.81333C47.6314 1.51259 48.6867 0.451988 49.9858 0.51698C59.7816 1.00704 69.2025 4.5454 76.9154 10.6672C85.2446 17.2782 91.0917 26.513 93.5057 36.8692C95.9197 47.2255 94.7584 58.0939 90.2108 67.7063C85.6632 77.3187 77.9969 85.1096 68.4589 89.8115C58.921 94.5134 48.0728 95.8496 37.679 93.6028C27.2851 91.356 17.9574 85.6584 11.2131 77.4369C4.46876 69.2153 0.704788 58.9536 0.533458 48.3211C0.374804 38.4753 3.3055 28.8479 8.88229 20.7797C9.62188 19.7097 11.1058 19.5185 12.1375 20.3107C13.1693 21.1028 13.3575 22.578 12.6238 23.6521C7.69138 30.8735 5.10174 39.4628 5.24325 48.2452C5.39745 57.8145 8.78503 67.05 14.8549 74.4494C20.9248 81.8488 29.3198 86.9766 38.6742 88.9988C48.0286 91.0209 57.7921 89.8183 66.3762 85.5866C74.9603 81.3549 81.86 74.3431 85.9529 65.6919C90.0457 57.0407 91.0908 47.2592 88.9183 37.9385C86.7457 28.6179 81.4833 20.3066 73.987 14.3567C67.1072 8.89609 58.7173 5.7194 49.9856 5.23392C48.6868 5.16172 47.6314 4.11408 47.6314 2.81333Z" fill="#FEBF00"/>
<circle cx="12.7113" cy="19.917" r="6.18981" fill="white" stroke="#FEBF00" stroke-width="4"/>
</svg>
